<svg width="41" height="38" viewBox="0 0 41 38" fill="none" xmlns="http://www.w3.org/2000/svg">
<path opacity="0.5" d="M40.0656 0.256714L30.2605 34.9917C30.2106 35.1494 30.0112 35.1967 29.8949 35.0863L23.3305 28.8583L28.2496 11.4514C28.2995 11.2937 28.1499 11.1518 27.9837 11.1991L9.63658 15.8662L3.10539 9.66969C2.98906 9.55932 3.03892 9.37011 3.2051 9.32281L39.7997 0.00444022C39.9659 -0.027094 40.1155 0.11481 40.0656 0.256714Z" fill="white"/>
<path opacity="0.5" d="M23.3297 28.858L20.8037 37.8452C20.7538 38.0029 20.5544 38.0502 20.4381 37.9398L0.0634003 18.6251C-0.0529313 18.5147 -0.00307518 18.3255 0.163113 18.2782L9.63583 15.8658L23.3297 28.858Z" fill="white"/>
<path d="M28.2488 11.4511L23.3296 28.858L9.63574 15.8659L27.9829 11.1988C28.1491 11.1515 28.2987 11.2934 28.2488 11.4511Z" fill="white"/>
</svg>
